<svg id="visual" viewBox="0 0 900 600" width="900" height="600" xmlns="http://www.w3.org/2000/svg" xmlns:xlink="http://www.w3.org/1999/xlink" version="1.1"><rect x="0" y="0" width="900" height="600" fill="#ffffff"></rect><defs><linearGradient id="grad1_0" x1="33.3%" y1="0%" x2="100%" y2="100%"><stop offset="20%" stop-color="#ffffff" stop-opacity="1"></stop><stop offset="80%" stop-color="#ffffff" stop-opacity="1"></stop></linearGradient></defs><defs><linearGradient id="grad2_0" x1="0%" y1="0%" x2="66.7%" y2="100%"><stop offset="20%" stop-color="#ffffff" stop-opacity="1"></stop><stop offset="80%" stop-color="#ffffff" stop-opacity="1"></stop></linearGradient></defs><g transform="translate(900, 0)"><path d="M0 324.5C-38.8 315.8 -77.7 307.2 -122.1 294.7C-166.5 282.3 -216.4 266 -229.5 229.5C-242.5 192.9 -218.5 136.1 -228.2 94.5C-237.9 52.9 -281.2 26.5 -324.5 0L0 0Z" fill="#FF90C5"></path></g><g transform="translate(0, 600)"><path d="M0 -324.5C50.2 -328.3 100.4 -332.1 124.2 -299.8C148 -267.5 145.3 -199.3 164 -164C182.8 -128.8 222.8 -126.7 253.1 -104.9C283.4 -83 304 -41.5 324.5 0L0 0Z" fill="#FF90C5"></path></g></svg>