<svg id="visual" viewBox="0 0 960 540" width="960" height="540" xmlns="http://www.w3.org/2000/svg" xmlns:xlink="http://www.w3.org/1999/xlink" version="1.1"><rect x="0" y="0" width="960" height="540" fill="#ffffff"></rect><defs><linearGradient id="grad1_0" x1="43.8%" y1="0%" x2="100%" y2="100%"><stop offset="14.444444444444446%" stop-color="#ff90c5" stop-opacity="1"></stop><stop offset="85.55555555555554%" stop-color="#ff90c5" stop-opacity="1"></stop></linearGradient></defs><defs><linearGradient id="grad1_1" x1="43.8%" y1="0%" x2="100%" y2="100%"><stop offset="14.444444444444446%" stop-color="#ff90c5" stop-opacity="1"></stop><stop offset="85.55555555555554%" stop-color="#ffa7d0" stop-opacity="1"></stop></linearGradient></defs><defs><linearGradient id="grad1_2" x1="43.8%" y1="0%" x2="100%" y2="100%"><stop offset="14.444444444444446%" stop-color="#ffbedc" stop-opacity="1"></stop><stop offset="85.55555555555554%" stop-color="#ffa7d0" stop-opacity="1"></stop></linearGradient></defs><defs><linearGradient id="grad1_3" x1="43.8%" y1="0%" x2="100%" y2="100%"><stop offset="14.444444444444446%" stop-color="#ffbedc" stop-opacity="1"></stop><stop offset="85.55555555555554%" stop-color="#ffd4e8" stop-opacity="1"></stop></linearGradient></defs><defs><linearGradient id="grad1_4" x1="43.8%" y1="0%" x2="100%" y2="100%"><stop offset="14.444444444444446%" stop-color="#ffe9f3" stop-opacity="1"></stop><stop offset="85.55555555555554%" stop-color="#ffd4e8" stop-opacity="1"></stop></linearGradient></defs><defs><linearGradient id="grad1_5" x1="43.8%" y1="0%" x2="100%" y2="100%"><stop offset="14.444444444444446%" stop-color="#ffe9f3" stop-opacity="1"></stop><stop offset="85.55555555555554%" stop-color="#ffffff" stop-opacity="1"></stop></linearGradient></defs><defs><linearGradient id="grad2_0" x1="0%" y1="0%" x2="56.3%" y2="100%"><stop offset="14.444444444444446%" stop-color="#ff90c5" stop-opacity="1"></stop><stop offset="85.55555555555554%" stop-color="#ff90c5" stop-opacity="1"></stop></linearGradient></defs><defs><linearGradient id="grad2_1" x1="0%" y1="0%" x2="56.3%" y2="100%"><stop offset="14.444444444444446%" stop-color="#ffa7d0" stop-opacity="1"></stop><stop offset="85.55555555555554%" stop-color="#ff90c5" stop-opacity="1"></stop></linearGradient></defs><defs><linearGradient id="grad2_2" x1="0%" y1="0%" x2="56.3%" y2="100%"><stop offset="14.444444444444446%" stop-color="#ffa7d0" stop-opacity="1"></stop><stop offset="85.55555555555554%" stop-color="#ffbedc" stop-opacity="1"></stop></linearGradient></defs><defs><linearGradient id="grad2_3" x1="0%" y1="0%" x2="56.3%" y2="100%"><stop offset="14.444444444444446%" stop-color="#ffd4e8" stop-opacity="1"></stop><stop offset="85.55555555555554%" stop-color="#ffbedc" stop-opacity="1"></stop></linearGradient></defs><defs><linearGradient id="grad2_4" x1="0%" y1="0%" x2="56.3%" y2="100%"><stop offset="14.444444444444446%" stop-color="#ffd4e8" stop-opacity="1"></stop><stop offset="85.55555555555554%" stop-color="#ffe9f3" stop-opacity="1"></stop></linearGradient></defs><defs><linearGradient id="grad2_5" x1="0%" y1="0%" x2="56.3%" y2="100%"><stop offset="14.444444444444446%" stop-color="#ffffff" stop-opacity="1"></stop><stop offset="85.55555555555554%" stop-color="#ffe9f3" stop-opacity="1"></stop></linearGradient></defs><g transform="translate(960, 0)"><path d="M0 486C-45.9 406.4 -91.8 326.7 -171 296.2C-250.2 265.6 -362.8 284.2 -420.9 243C-478.9 201.8 -482.5 100.9 -486 0L0 0Z" fill="#fff4f9"></path><path d="M0 405C-38.2 338.6 -76.5 272.3 -142.5 246.8C-208.5 221.4 -302.4 236.8 -350.7 202.5C-399.1 168.2 -402.1 84.1 -405 0L0 0Z" fill="#ffdfed"></path><path d="M0 324C-30.6 270.9 -61.2 217.8 -114 197.5C-166.8 177.1 -241.9 189.5 -280.6 162C-319.3 134.5 -321.6 67.3 -324 0L0 0Z" fill="#ffc9e2"></path><path d="M0 243C-22.9 203.2 -45.9 163.4 -85.5 148.1C-125.1 132.8 -181.4 142.1 -210.4 121.5C-239.5 100.9 -241.2 50.5 -243 0L0 0Z" fill="#ffb3d6"></path><path d="M0 162C-15.3 135.5 -30.6 108.9 -57 98.7C-83.4 88.5 -120.9 94.7 -140.3 81C-159.6 67.3 -160.8 33.6 -162 0L0 0Z" fill="#ff9ccb"></path><path d="M0 81C-7.6 67.7 -15.3 54.5 -28.5 49.4C-41.7 44.3 -60.5 47.4 -70.1 40.5C-79.8 33.6 -80.4 16.8 -81 0L0 0Z" fill="#ff90c5"></path></g><g transform="translate(0, 540)"><path d="M0 -486C77.9 -461.8 155.8 -437.6 231 -400.1C306.2 -362.6 378.8 -311.9 420.9 -243C462.9 -174.1 474.5 -87.1 486 0L0 0Z" fill="#fff4f9"></path><path d="M0 -405C64.9 -384.8 129.8 -364.6 192.5 -333.4C255.2 -302.2 315.7 -259.9 350.7 -202.5C385.8 -145.1 395.4 -72.5 405 0L0 0Z" fill="#ffdfed"></path><path d="M0 -324C51.9 -307.9 103.8 -291.7 154 -266.7C204.2 -241.8 252.6 -207.9 280.6 -162C308.6 -116.1 316.3 -58 324 0L0 0Z" fill="#ffc9e2"></path><path d="M0 -243C38.9 -230.9 77.9 -218.8 115.5 -200.1C153.1 -181.3 189.4 -155.9 210.4 -121.5C231.5 -87.1 237.2 -43.5 243 0L0 0Z" fill="#ffb3d6"></path><path d="M0 -162C26 -153.9 51.9 -145.9 77 -133.4C102.1 -120.9 126.3 -104 140.3 -81C154.3 -58 158.2 -29 162 0L0 0Z" fill="#ff9ccb"></path><path d="M0 -81C13 -77 26 -72.9 38.5 -66.7C51 -60.4 63.1 -52 70.1 -40.5C77.2 -29 79.1 -14.5 81 0L0 0Z" fill="#ff90c5"></path></g></svg>