<svg id="visual" viewBox="0 0 960 300" width="960" height="300" xmlns="http://www.w3.org/2000/svg" xmlns:xlink="http://www.w3.org/1999/xlink" version="1.1"><rect x="0" y="0" width="960" height="300" fill="#fff"></rect><path d="M0 211L7 217C14 223 28 235 41.8 239.2C55.7 243.3 69.3 239.7 83.2 245.7C97 251.7 111 267.3 125 275.7C139 284 153 285 167 261C181 237 195 188 208.8 166.5C222.7 145 236.3 151 250.2 149.7C264 148.3 278 139.7 292 159.2C306 178.7 320 226.3 334 243.7C348 261 362 248 375.8 231.5C389.7 215 403.3 195 417.2 198.5C431 202 445 229 459 231.2C473 233.3 487 210.7 501 198C515 185.3 529 182.7 542.8 180.2C556.7 177.7 570.3 175.3 584.2 170.8C598 166.3 612 159.7 626 167C640 174.3 654 195.7 668 200C682 204.3 696 191.7 709.8 189C723.7 186.3 737.3 193.7 751.2 203.5C765 213.3 779 225.7 793 240.3C807 255 821 272 835 281C849 290 863 291 876.8 292C890.7 293 904.3 294 918.2 284.5C932 275 946 255 953 245L960 235L960 0L953 0C946 0 932 0 918.2 0C904.3 0 890.7 0 876.8 0C863 0 849 0 835 0C821 0 807 0 793 0C779 0 765 0 751.2 0C737.3 0 723.7 0 709.8 0C696 0 682 0 668 0C654 0 640 0 626 0C612 0 598 0 584.2 0C570.3 0 556.7 0 542.8 0C529 0 515 0 501 0C487 0 473 0 459 0C445 0 431 0 417.2 0C403.3 0 389.7 0 375.8 0C362 0 348 0 334 0C320 0 306 0 292 0C278 0 264 0 250.2 0C236.3 0 222.7 0 208.8 0C195 0 181 0 167 0C153 0 139 0 125 0C111 0 97 0 83.2 0C69.3 0 55.7 0 41.8 0C28 0 14 0 7 0L0 0Z" fill="#ffffff"></path><path d="M0 138L7 158.2C14 178.3 28 218.7 41.8 221.2C55.7 223.7 69.3 188.3 83.2 188.8C97 189.3 111 225.7 125 245.7C139 265.7 153 269.3 167 264.5C181 259.7 195 246.3 208.8 238.7C222.7 231 236.3 229 250.2 222C264 215 278 203 292 199.7C306 196.3 320 201.7 334 203.3C348 205 362 203 375.8 212.5C389.7 222 403.3 243 417.2 240C431 237 445 210 459 201C473 192 487 201 501 197.7C515 194.3 529 178.7 542.8 176.7C556.7 174.7 570.3 186.3 584.2 198C598 209.7 612 221.3 626 223C640 224.7 654 216.3 668 218.2C682 220 696 232 709.8 240.3C723.7 248.7 737.3 253.3 751.2 245C765 236.7 779 215.3 793 215.2C807 215 821 236 835 228C849 220 863 183 876.8 169.7C890.7 156.3 904.3 166.7 918.2 164C932 161.3 946 145.7 953 137.8L960 130L960 0L953 0C946 0 932 0 918.2 0C904.3 0 890.7 0 876.8 0C863 0 849 0 835 0C821 0 807 0 793 0C779 0 765 0 751.2 0C737.3 0 723.7 0 709.8 0C696 0 682 0 668 0C654 0 640 0 626 0C612 0 598 0 584.2 0C570.3 0 556.7 0 542.8 0C529 0 515 0 501 0C487 0 473 0 459 0C445 0 431 0 417.2 0C403.3 0 389.7 0 375.8 0C362 0 348 0 334 0C320 0 306 0 292 0C278 0 264 0 250.2 0C236.3 0 222.7 0 208.8 0C195 0 181 0 167 0C153 0 139 0 125 0C111 0 97 0 83.2 0C69.3 0 55.7 0 41.8 0C28 0 14 0 7 0L0 0Z" fill="#fff5fa"></path><path d="M0 235L7 223.5C14 212 28 189 41.8 174.3C55.7 159.7 69.3 153.3 83.2 148.2C97 143 111 139 125 136.5C139 134 153 133 167 152C181 171 195 210 208.8 222C222.7 234 236.3 219 250.2 219.2C264 219.3 278 234.7 292 234C306 233.3 320 216.7 334 209.2C348 201.7 362 203.3 375.8 211.7C389.7 220 403.3 235 417.2 232.5C431 230 445 210 459 210.2C473 210.3 487 230.7 501 226.2C515 221.7 529 192.3 542.8 182.5C556.7 172.7 570.3 182.3 584.2 187.3C598 192.3 612 192.7 626 194.2C640 195.7 654 198.3 668 187.8C682 177.3 696 153.7 709.8 148.8C723.7 144 737.3 158 751.2 171.2C765 184.3 779 196.7 793 193.7C807 190.7 821 172.3 835 166C849 159.7 863 165.3 876.8 177.7C890.7 190 904.3 209 918.2 216.3C932 223.7 946 219.3 953 217.2L960 215L960 0L953 0C946 0 932 0 918.2 0C904.3 0 890.7 0 876.8 0C863 0 849 0 835 0C821 0 807 0 793 0C779 0 765 0 751.2 0C737.3 0 723.7 0 709.8 0C696 0 682 0 668 0C654 0 640 0 626 0C612 0 598 0 584.2 0C570.3 0 556.7 0 542.8 0C529 0 515 0 501 0C487 0 473 0 459 0C445 0 431 0 417.2 0C403.3 0 389.7 0 375.8 0C362 0 348 0 334 0C320 0 306 0 292 0C278 0 264 0 250.2 0C236.3 0 222.7 0 208.8 0C195 0 181 0 167 0C153 0 139 0 125 0C111 0 97 0 83.2 0C69.3 0 55.7 0 41.8 0C28 0 14 0 7 0L0 0Z" fill="#ffebf4"></path><path d="M0 144L7 145.8C14 147.7 28 151.3 41.8 150.8C55.7 150.3 69.3 145.7 83.2 150.2C97 154.7 111 168.3 125 177.8C139 187.3 153 192.7 167 192.3C181 192 195 186 208.8 187.2C222.7 188.3 236.3 196.7 250.2 189C264 181.3 278 157.7 292 156.2C306 154.7 320 175.3 334 179.8C348 184.3 362 172.7 375.8 174.3C389.7 176 403.3 191 417.2 199.2C431 207.3 445 208.7 459 204.2C473 199.7 487 189.3 501 184.8C515 180.3 529 181.7 542.8 178.8C556.7 176 570.3 169 584.2 171.5C598 174 612 186 626 188C640 190 654 182 668 175C682 168 696 162 709.8 155.7C723.7 149.3 737.3 142.7 751.2 141.2C765 139.7 779 143.3 793 139.8C807 136.3 821 125.7 835 138.5C849 151.3 863 187.7 876.8 198C890.7 208.3 904.3 192.7 918.2 180.3C932 168 946 159 953 154.5L960 150L960 0L953 0C946 0 932 0 918.2 0C904.3 0 890.7 0 876.8 0C863 0 849 0 835 0C821 0 807 0 793 0C779 0 765 0 751.2 0C737.3 0 723.7 0 709.8 0C696 0 682 0 668 0C654 0 640 0 626 0C612 0 598 0 584.2 0C570.3 0 556.7 0 542.8 0C529 0 515 0 501 0C487 0 473 0 459 0C445 0 431 0 417.2 0C403.3 0 389.7 0 375.8 0C362 0 348 0 334 0C320 0 306 0 292 0C278 0 264 0 250.2 0C236.3 0 222.7 0 208.8 0C195 0 181 0 167 0C153 0 139 0 125 0C111 0 97 0 83.2 0C69.3 0 55.7 0 41.8 0C28 0 14 0 7 0L0 0Z" fill="#ffe2ef"></path><path d="M0 166L7 157.5C14 149 28 132 41.8 123.8C55.7 115.7 69.3 116.3 83.2 125.2C97 134 111 151 125 151.2C139 151.3 153 134.7 167 125.3C181 116 195 114 208.8 118.3C222.7 122.7 236.3 133.3 250.2 136.5C264 139.7 278 135.3 292 138.5C306 141.7 320 152.3 334 161.7C348 171 362 179 375.8 174.2C389.7 169.3 403.3 151.7 417.2 150.7C431 149.7 445 165.3 459 158.2C473 151 487 121 501 119.5C515 118 529 145 542.8 149.2C556.7 153.3 570.3 134.7 584.2 132C598 129.3 612 142.7 626 157.3C640 172 654 188 668 192.7C682 197.3 696 190.7 709.8 187.7C723.7 184.7 737.3 185.3 751.2 173.7C765 162 779 138 793 123.7C807 109.3 821 104.7 835 107.7C849 110.7 863 121.3 876.8 138.5C890.7 155.7 904.3 179.3 918.2 173.7C932 168 946 133 953 115.5L960 98L960 0L953 0C946 0 932 0 918.2 0C904.3 0 890.7 0 876.8 0C863 0 849 0 835 0C821 0 807 0 793 0C779 0 765 0 751.2 0C737.3 0 723.7 0 709.8 0C696 0 682 0 668 0C654 0 640 0 626 0C612 0 598 0 584.2 0C570.3 0 556.7 0 542.8 0C529 0 515 0 501 0C487 0 473 0 459 0C445 0 431 0 417.2 0C403.3 0 389.7 0 375.8 0C362 0 348 0 334 0C320 0 306 0 292 0C278 0 264 0 250.2 0C236.3 0 222.7 0 208.8 0C195 0 181 0 167 0C153 0 139 0 125 0C111 0 97 0 83.2 0C69.3 0 55.7 0 41.8 0C28 0 14 0 7 0L0 0Z" fill="#ffd8ea"></path><path d="M0 131L7 138.5C14 146 28 161 41.8 166.7C55.7 172.3 69.3 168.7 83.2 163.8C97 159 111 153 125 142.7C139 132.3 153 117.7 167 116.3C181 115 195 127 208.8 130.3C222.7 133.7 236.3 128.3 250.2 118.7C264 109 278 95 292 88.5C306 82 320 83 334 95C348 107 362 130 375.8 137.7C389.7 145.3 403.3 137.7 417.2 139.2C431 140.7 445 151.3 459 141.5C473 131.7 487 101.3 501 91.5C515 81.7 529 92.3 542.8 94.2C556.7 96 570.3 89 584.2 87.8C598 86.7 612 91.3 626 102.8C640 114.3 654 132.7 668 135.7C682 138.7 696 126.3 709.8 129.8C723.7 133.3 737.3 152.7 751.2 151.2C765 149.7 779 127.3 793 118.3C807 109.3 821 113.7 835 110.5C849 107.3 863 96.7 876.8 102.2C890.7 107.7 904.3 129.3 918.2 127.8C932 126.3 946 101.7 953 89.3L960 77L960 0L953 0C946 0 932 0 918.2 0C904.3 0 890.7 0 876.8 0C863 0 849 0 835 0C821 0 807 0 793 0C779 0 765 0 751.2 0C737.3 0 723.7 0 709.8 0C696 0 682 0 668 0C654 0 640 0 626 0C612 0 598 0 584.2 0C570.3 0 556.7 0 542.8 0C529 0 515 0 501 0C487 0 473 0 459 0C445 0 431 0 417.2 0C403.3 0 389.7 0 375.8 0C362 0 348 0 334 0C320 0 306 0 292 0C278 0 264 0 250.2 0C236.3 0 222.7 0 208.8 0C195 0 181 0 167 0C153 0 139 0 125 0C111 0 97 0 83.2 0C69.3 0 55.7 0 41.8 0C28 0 14 0 7 0L0 0Z" fill="#ffcee5"></path><path d="M0 154L7 148.7C14 143.3 28 132.7 41.8 120.3C55.7 108 69.3 94 83.2 92.5C97 91 111 102 125 114.3C139 126.7 153 140.3 167 136.3C181 132.3 195 110.7 208.8 101.7C222.7 92.7 236.3 96.3 250.2 101.5C264 106.7 278 113.3 292 112.2C306 111 320 102 334 107.3C348 112.7 362 132.3 375.8 142.8C389.7 153.3 403.3 154.7 417.2 154.2C431 153.7 445 151.3 459 142.2C473 133 487 117 501 113.3C515 109.7 529 118.3 542.8 122.3C556.7 126.3 570.3 125.7 584.2 128.3C598 131 612 137 626 140.2C640 143.3 654 143.7 668 140.2C682 136.7 696 129.3 709.8 128.8C723.7 128.3 737.3 134.7 751.2 125.2C765 115.7 779 90.3 793 92.2C807 94 821 123 835 134.5C849 146 863 140 876.8 130.8C890.7 121.7 904.3 109.3 918.2 96.5C932 83.7 946 70.3 953 63.7L960 57L960 0L953 0C946 0 932 0 918.2 0C904.3 0 890.7 0 876.8 0C863 0 849 0 835 0C821 0 807 0 793 0C779 0 765 0 751.2 0C737.3 0 723.7 0 709.8 0C696 0 682 0 668 0C654 0 640 0 626 0C612 0 598 0 584.2 0C570.3 0 556.7 0 542.8 0C529 0 515 0 501 0C487 0 473 0 459 0C445 0 431 0 417.2 0C403.3 0 389.7 0 375.8 0C362 0 348 0 334 0C320 0 306 0 292 0C278 0 264 0 250.2 0C236.3 0 222.7 0 208.8 0C195 0 181 0 167 0C153 0 139 0 125 0C111 0 97 0 83.2 0C69.3 0 55.7 0 41.8 0C28 0 14 0 7 0L0 0Z" fill="#ffc4df"></path><path d="M0 95L7 89.8C14 84.7 28 74.3 41.8 70.7C55.7 67 69.3 70 83.2 72.8C97 75.7 111 78.3 125 77.5C139 76.7 153 72.3 167 68.5C181 64.7 195 61.3 208.8 59.3C222.7 57.3 236.3 56.7 250.2 55.7C264 54.7 278 53.3 292 56C306 58.7 320 65.3 334 75.2C348 85 362 98 375.8 97C389.7 96 403.3 81 417.2 83.7C431 86.3 445 106.7 459 115.5C473 124.3 487 121.7 501 114.7C515 107.7 529 96.3 542.8 96.2C556.7 96 570.3 107 584.2 111.2C598 115.3 612 112.7 626 105.8C640 99 654 88 668 80.5C682 73 696 69 709.8 66.3C723.7 63.7 737.3 62.3 751.2 74.3C765 86.3 779 111.7 793 113C807 114.3 821 91.7 835 82.3C849 73 863 77 876.8 74C890.7 71 904.3 61 918.2 65.3C932 69.7 946 88.3 953 97.7L960 107L960 0L953 0C946 0 932 0 918.2 0C904.3 0 890.7 0 876.8 0C863 0 849 0 835 0C821 0 807 0 793 0C779 0 765 0 751.2 0C737.3 0 723.7 0 709.8 0C696 0 682 0 668 0C654 0 640 0 626 0C612 0 598 0 584.2 0C570.3 0 556.7 0 542.8 0C529 0 515 0 501 0C487 0 473 0 459 0C445 0 431 0 417.2 0C403.3 0 389.7 0 375.8 0C362 0 348 0 334 0C320 0 306 0 292 0C278 0 264 0 250.2 0C236.3 0 222.7 0 208.8 0C195 0 181 0 167 0C153 0 139 0 125 0C111 0 97 0 83.2 0C69.3 0 55.7 0 41.8 0C28 0 14 0 7 0L0 0Z" fill="#ffbada"></path><path d="M0 54L7 51.7C14 49.3 28 44.7 41.8 43.8C55.7 43 69.3 46 83.2 53.2C97 60.3 111 71.7 125 75.7C139 79.7 153 76.3 167 71.5C181 66.7 195 60.3 208.8 62C222.7 63.7 236.3 73.3 250.2 82.8C264 92.3 278 101.7 292 98.8C306 96 320 81 334 75.2C348 69.3 362 72.7 375.8 78C389.7 83.3 403.3 90.7 417.2 94.8C431 99 445 100 459 99C473 98 487 95 501 95.2C515 95.3 529 98.7 542.8 89.8C556.7 81 570.3 60 584.2 58.7C598 57.3 612 75.7 626 84.2C640 92.7 654 91.3 668 93.8C682 96.3 696 102.7 709.8 98.8C723.7 95 737.3 81 751.2 71C765 61 779 55 793 53.3C807 51.7 821 54.3 835 60.2C849 66 863 75 876.8 78.3C890.7 81.7 904.3 79.3 918.2 81.3C932 83.3 946 89.7 953 92.8L960 96L960 0L953 0C946 0 932 0 918.2 0C904.3 0 890.7 0 876.8 0C863 0 849 0 835 0C821 0 807 0 793 0C779 0 765 0 751.2 0C737.3 0 723.7 0 709.8 0C696 0 682 0 668 0C654 0 640 0 626 0C612 0 598 0 584.2 0C570.3 0 556.7 0 542.8 0C529 0 515 0 501 0C487 0 473 0 459 0C445 0 431 0 417.2 0C403.3 0 389.7 0 375.8 0C362 0 348 0 334 0C320 0 306 0 292 0C278 0 264 0 250.2 0C236.3 0 222.7 0 208.8 0C195 0 181 0 167 0C153 0 139 0 125 0C111 0 97 0 83.2 0C69.3 0 55.7 0 41.8 0C28 0 14 0 7 0L0 0Z" fill="#ffb0d5"></path><path d="M0 27L7 31.3C14 35.7 28 44.3 41.8 48.2C55.7 52 69.3 51 83.2 52C97 53 111 56 125 57.5C139 59 153 59 167 57.3C181 55.7 195 52.3 208.8 57.3C222.7 62.3 236.3 75.7 250.2 72.2C264 68.7 278 48.3 292 46.3C306 44.3 320 60.7 334 60.5C348 60.3 362 43.7 375.8 37.7C389.7 31.7 403.3 36.3 417.2 38.5C431 40.7 445 40.3 459 42C473 43.7 487 47.3 501 55.5C515 63.7 529 76.3 542.8 76.3C556.7 76.3 570.3 63.7 584.2 59C598 54.3 612 57.7 626 54.7C640 51.7 654 42.3 668 43.2C682 44 696 55 709.8 55C723.7 55 737.3 44 751.2 43.7C765 43.3 779 53.7 793 53.8C807 54 821 44 835 43.5C849 43 863 52 876.8 50.5C890.7 49 904.3 37 918.2 34.5C932 32 946 39 953 42.5L960 46L960 0L953 0C946 0 932 0 918.2 0C904.3 0 890.7 0 876.8 0C863 0 849 0 835 0C821 0 807 0 793 0C779 0 765 0 751.2 0C737.3 0 723.7 0 709.8 0C696 0 682 0 668 0C654 0 640 0 626 0C612 0 598 0 584.2 0C570.3 0 556.7 0 542.8 0C529 0 515 0 501 0C487 0 473 0 459 0C445 0 431 0 417.2 0C403.3 0 389.7 0 375.8 0C362 0 348 0 334 0C320 0 306 0 292 0C278 0 264 0 250.2 0C236.3 0 222.7 0 208.8 0C195 0 181 0 167 0C153 0 139 0 125 0C111 0 97 0 83.2 0C69.3 0 55.7 0 41.8 0C28 0 14 0 7 0L0 0Z" fill="#ffa5d0"></path><path d="M0 60L7 52.8C14 45.7 28 31.3 41.8 32.2C55.7 33 69.3 49 83.2 53.7C97 58.3 111 51.7 125 49.3C139 47 153 49 167 45C181 41 195 31 208.8 26.5C222.7 22 236.3 23 250.2 22.7C264 22.3 278 20.7 292 25.3C306 30 320 41 334 47.5C348 54 362 56 375.8 50C389.7 44 403.3 30 417.2 30.5C431 31 445 46 459 48.7C473 51.3 487 41.7 501 34.7C515 27.7 529 23.3 542.8 24C556.7 24.7 570.3 30.3 584.2 31.2C598 32 612 28 626 23.8C640 19.7 654 15.3 668 18.7C682 22 696 33 709.8 33.5C723.7 34 737.3 24 751.2 18.5C765 13 779 12 793 16.7C807 21.3 821 31.7 835 31.7C849 31.7 863 21.3 876.8 21.3C890.7 21.3 904.3 31.7 918.2 40.5C932 49.3 946 56.7 953 60.3L960 64L960 0L953 0C946 0 932 0 918.2 0C904.3 0 890.7 0 876.8 0C863 0 849 0 835 0C821 0 807 0 793 0C779 0 765 0 751.2 0C737.3 0 723.7 0 709.8 0C696 0 682 0 668 0C654 0 640 0 626 0C612 0 598 0 584.2 0C570.3 0 556.7 0 542.8 0C529 0 515 0 501 0C487 0 473 0 459 0C445 0 431 0 417.2 0C403.3 0 389.7 0 375.8 0C362 0 348 0 334 0C320 0 306 0 292 0C278 0 264 0 250.2 0C236.3 0 222.7 0 208.8 0C195 0 181 0 167 0C153 0 139 0 125 0C111 0 97 0 83.2 0C69.3 0 55.7 0 41.8 0C28 0 14 0 7 0L0 0Z" fill="#ff9bca"></path><path d="M0 29L7 31.7C14 34.3 28 39.7 41.8 36C55.7 32.3 69.3 19.7 83.2 17.8C97 16 111 25 125 25C139 25 153 16 167 14.8C181 13.7 195 20.3 208.8 20C222.7 19.7 236.3 12.3 250.2 8.2C264 4 278 3 292 3.3C306 3.7 320 5.3 334 12C348 18.7 362 30.3 375.8 35.8C389.7 41.3 403.3 40.7 417.2 36.8C431 33 445 26 459 19.5C473 13 487 7 501 4.7C515 2.3 529 3.7 542.8 11C556.7 18.3 570.3 31.7 584.2 37.8C598 44 612 43 626 35.8C640 28.7 654 15.3 668 12C682 8.7 696 15.3 709.8 20.8C723.7 26.3 737.3 30.7 751.2 27.5C765 24.3 779 13.7 793 9.7C807 5.7 821 8.3 835 13.5C849 18.7 863 26.3 876.8 31.2C890.7 36 904.3 38 918.2 38C932 38 946 36 953 35L960 34L960 0L953 0C946 0 932 0 918.2 0C904.3 0 890.7 0 876.8 0C863 0 849 0 835 0C821 0 807 0 793 0C779 0 765 0 751.2 0C737.3 0 723.7 0 709.8 0C696 0 682 0 668 0C654 0 640 0 626 0C612 0 598 0 584.2 0C570.3 0 556.7 0 542.8 0C529 0 515 0 501 0C487 0 473 0 459 0C445 0 431 0 417.2 0C403.3 0 389.7 0 375.8 0C362 0 348 0 334 0C320 0 306 0 292 0C278 0 264 0 250.2 0C236.3 0 222.7 0 208.8 0C195 0 181 0 167 0C153 0 139 0 125 0C111 0 97 0 83.2 0C69.3 0 55.7 0 41.8 0C28 0 14 0 7 0L0 0Z" fill="#ff90c5"></path></svg>