<svg id="visual" viewBox="0 0 960 300" width="960" height="300" xmlns="http://www.w3.org/2000/svg" xmlns:xlink="http://www.w3.org/1999/xlink" version="1.1"><rect x="0" y="0" width="960" height="300" fill="#FFCEFF"></rect><defs><linearGradient id="grad1_0" x1="68.8%" y1="0%" x2="100%" y2="100%"><stop offset="-14.000000000000007%" stop-color="#ffceff" stop-opacity="1"></stop><stop offset="114.00000000000001%" stop-color="#ffceff" stop-opacity="1"></stop></linearGradient></defs><defs><linearGradient id="grad2_0" x1="0%" y1="0%" x2="31.3%" y2="100%"><stop offset="-14.000000000000007%" stop-color="#ffceff" stop-opacity="1"></stop><stop offset="114.00000000000001%" stop-color="#ffceff" stop-opacity="1"></stop></linearGradient></defs><g transform="translate(960, 0)"><path d="M0 270C-51.3 265.3 -102.7 260.6 -135 233.8C-167.3 207 -180.7 158.2 -200.1 115.5C-219.4 72.8 -244.7 36.4 -270 0L0 0Z" fill="#FF90C5"></path></g><g transform="translate(0, 300)"><path d="M0 -270C55.7 -267.8 111.4 -265.7 135 -233.8C158.6 -202 150 -140.4 167.1 -96.5C184.3 -52.6 227.1 -26.3 270 0L0 0Z" fill="#FF90C5"></path></g></svg>