<svg id="visual" viewBox="0 0 960 300" width="960" height="300" xmlns="http://www.w3.org/2000/svg" xmlns:xlink="http://www.w3.org/1999/xlink" version="1.1"><path d="M0 115L14.5 112.5C29 110 58 105 87.2 103.5C116.3 102 145.7 104 174.8 106C204 108 233 110 262 101C291 92 320 72 349 70C378 68 407 84 436.2 87.5C465.3 91 494.7 82 523.8 72C553 62 582 51 611 47C640 43 669 46 698 61.5C727 77 756 105 785.2 109C814.3 113 843.7 93 872.8 83.5C902 74 931 75 945.5 75.5L960 76L960 0L945.5 0C931 0 902 0 872.8 0C843.7 0 814.3 0 785.2 0C756 0 727 0 698 0C669 0 640 0 611 0C582 0 553 0 523.8 0C494.7 0 465.3 0 436.2 0C407 0 378 0 349 0C320 0 291 0 262 0C233 0 204 0 174.8 0C145.7 0 116.3 0 87.2 0C58 0 29 0 14.5 0L0 0Z" fill="#ff90c5"></path><path d="M0 148L14.5 148.5C29 149 58 150 87.2 151.5C116.3 153 145.7 155 174.8 159C204 163 233 169 262 156C291 143 320 111 349 102C378 93 407 107 436.2 110C465.3 113 494.7 105 523.8 96C553 87 582 77 611 72.5C640 68 669 69 698 87C727 105 756 140 785.2 149.5C814.3 159 843.7 143 872.8 131.5C902 120 931 113 945.5 109.5L960 106L960 74L945.5 73.5C931 73 902 72 872.8 81.5C843.7 91 814.3 111 785.2 107C756 103 727 75 698 59.5C669 44 640 41 611 45C582 49 553 60 523.8 70C494.7 80 465.3 89 436.2 85.5C407 82 378 66 349 68C320 70 291 90 262 99C233 108 204 106 174.8 104C145.7 102 116.3 100 87.2 101.5C58 103 29 108 14.5 110.5L0 113Z" fill="#ffadd4"></path><path d="M0 223L14.5 221C29 219 58 215 87.2 214C116.3 213 145.7 215 174.8 217C204 219 233 221 262 209.5C291 198 320 173 349 170C378 167 407 186 436.2 191.5C465.3 197 494.7 189 523.8 179C553 169 582 157 611 151C640 145 669 145 698 158C727 171 756 197 785.2 206C814.3 215 843.7 207 872.8 198C902 189 931 179 945.5 174L960 169L960 104L945.5 107.5C931 111 902 118 872.8 129.5C843.7 141 814.3 157 785.2 147.5C756 138 727 103 698 85C669 67 640 66 611 70.5C582 75 553 85 523.8 94C494.7 103 465.3 111 436.2 108C407 105 378 91 349 100C320 109 291 141 262 154C233 167 204 161 174.8 157C145.7 153 116.3 151 87.2 149.5C58 148 29 147 14.5 146.5L0 146Z" fill="#ffc9e2"></path><path d="M0 259L14.5 256.5C29 254 58 249 87.2 246.5C116.3 244 145.7 244 174.8 245C204 246 233 248 262 237C291 226 320 202 349 200.5C378 199 407 220 436.2 226C465.3 232 494.7 223 523.8 214C553 205 582 196 611 190.5C640 185 669 183 698 193.5C727 204 756 227 785.2 237C814.3 247 843.7 244 872.8 236.5C902 229 931 217 945.5 211L960 205L960 167L945.5 172C931 177 902 187 872.8 196C843.7 205 814.3 213 785.2 204C756 195 727 169 698 156C669 143 640 143 611 149C582 155 553 167 523.8 177C494.7 187 465.3 195 436.2 189.5C407 184 378 165 349 168C320 171 291 196 262 207.5C233 219 204 217 174.8 215C145.7 213 116.3 211 87.2 212C58 213 29 217 14.5 219L0 221Z" fill="#ffe4f0"></path><path d="M0 301L14.5 301C29 301 58 301 87.2 301C116.3 301 145.7 301 174.8 301C204 301 233 301 262 301C291 301 320 301 349 301C378 301 407 301 436.2 301C465.3 301 494.7 301 523.8 301C553 301 582 301 611 301C640 301 669 301 698 301C727 301 756 301 785.2 301C814.3 301 843.7 301 872.8 301C902 301 931 301 945.5 301L960 301L960 203L945.5 209C931 215 902 227 872.8 234.5C843.7 242 814.3 245 785.2 235C756 225 727 202 698 191.5C669 181 640 183 611 188.5C582 194 553 203 523.8 212C494.7 221 465.3 230 436.2 224C407 218 378 197 349 198.5C320 200 291 224 262 235C233 246 204 244 174.8 243C145.7 242 116.3 242 87.2 244.5C58 247 29 252 14.5 254.5L0 257Z" fill="#ffffff"></path></svg>