<svg id="visual" viewBox="0 0 960 300" width="960" height="300" xmlns="http://www.w3.org/2000/svg" xmlns:xlink="http://www.w3.org/1999/xlink" version="1.1"><path d="M0 67L14.5 73C29 79 58 91 87.2 92.5C116.3 94 145.7 85 174.8 78.5C204 72 233 68 262 66C291 64 320 64 349 71C378 78 407 92 436.2 89.5C465.3 87 494.7 68 523.8 57C553 46 582 43 611 45.5C640 48 669 56 698 57.5C727 59 756 54 785.2 55.5C814.3 57 843.7 65 872.8 68.5C902 72 931 71 945.5 70.5L960 70L960 0L945.5 0C931 0 902 0 872.8 0C843.7 0 814.3 0 785.2 0C756 0 727 0 698 0C669 0 640 0 611 0C582 0 553 0 523.8 0C494.7 0 465.3 0 436.2 0C407 0 378 0 349 0C320 0 291 0 262 0C233 0 204 0 174.8 0C145.7 0 116.3 0 87.2 0C58 0 29 0 14.5 0L0 0Z" fill="#ffffff"></path><path d="M0 118L14.5 123C29 128 58 138 87.2 135C116.3 132 145.7 116 174.8 112C204 108 233 116 262 119.5C291 123 320 122 349 122C378 122 407 123 436.2 116.5C465.3 110 494.7 96 523.8 90.5C553 85 582 88 611 92.5C640 97 669 103 698 106.5C727 110 756 111 785.2 109.5C814.3 108 843.7 104 872.8 101C902 98 931 96 945.5 95L960 94L960 68L945.5 68.5C931 69 902 70 872.8 66.5C843.7 63 814.3 55 785.2 53.5C756 52 727 57 698 55.5C669 54 640 46 611 43.5C582 41 553 44 523.8 55C494.7 66 465.3 85 436.2 87.5C407 90 378 76 349 69C320 62 291 62 262 64C233 66 204 70 174.8 76.5C145.7 83 116.3 92 87.2 90.5C58 89 29 77 14.5 71L0 65Z" fill="#ffe8f3"></path><path d="M0 136L14.5 139.5C29 143 58 150 87.2 146.5C116.3 143 145.7 129 174.8 128C204 127 233 139 262 142C291 145 320 139 349 138.5C378 138 407 143 436.2 137.5C465.3 132 494.7 116 523.8 109.5C553 103 582 106 611 111C640 116 669 123 698 125C727 127 756 124 785.2 122C814.3 120 843.7 119 872.8 116C902 113 931 108 945.5 105.5L960 103L960 92L945.5 93C931 94 902 96 872.8 99C843.7 102 814.3 106 785.2 107.5C756 109 727 108 698 104.5C669 101 640 95 611 90.5C582 86 553 83 523.8 88.5C494.7 94 465.3 108 436.2 114.5C407 121 378 120 349 120C320 120 291 121 262 117.5C233 114 204 106 174.8 110C145.7 114 116.3 130 87.2 133C58 136 29 126 14.5 121L0 116Z" fill="#ffd0e7"></path><path d="M0 145L14.5 150C29 155 58 165 87.2 162.5C116.3 160 145.7 145 174.8 144.5C204 144 233 158 262 160C291 162 320 152 349 150.5C378 149 407 156 436.2 151C465.3 146 494.7 129 523.8 121.5C553 114 582 116 611 122.5C640 129 669 140 698 142.5C727 145 756 139 785.2 137.5C814.3 136 843.7 139 872.8 137.5C902 136 931 130 945.5 127L960 124L960 101L945.5 103.5C931 106 902 111 872.8 114C843.7 117 814.3 118 785.2 120C756 122 727 125 698 123C669 121 640 114 611 109C582 104 553 101 523.8 107.5C494.7 114 465.3 130 436.2 135.5C407 141 378 136 349 136.5C320 137 291 143 262 140C233 137 204 125 174.8 126C145.7 127 116.3 141 87.2 144.5C58 148 29 141 14.5 137.5L0 134Z" fill="#ffb9da"></path><path d="M0 184L14.5 186C29 188 58 192 87.2 187C116.3 182 145.7 168 174.8 169C204 170 233 186 262 186.5C291 187 320 172 349 167.5C378 163 407 169 436.2 166C465.3 163 494.7 151 523.8 147.5C553 144 582 149 611 153C640 157 669 160 698 161.5C727 163 756 163 785.2 162.5C814.3 162 843.7 161 872.8 159.5C902 158 931 156 945.5 155L960 154L960 122L945.5 125C931 128 902 134 872.8 135.5C843.7 137 814.3 134 785.2 135.5C756 137 727 143 698 140.5C669 138 640 127 611 120.5C582 114 553 112 523.8 119.5C494.7 127 465.3 144 436.2 149C407 154 378 147 349 148.5C320 150 291 160 262 158C233 156 204 142 174.8 142.5C145.7 143 116.3 158 87.2 160.5C58 163 29 153 14.5 148L0 143Z" fill="#ffaad3"></path><path d="M0 205L14.5 206C29 207 58 209 87.2 208C116.3 207 145.7 203 174.8 204.5C204 206 233 213 262 211C291 209 320 198 349 198.5C378 199 407 211 436.2 207.5C465.3 204 494.7 185 523.8 179C553 173 582 180 611 184C640 188 669 189 698 187.5C727 186 756 182 785.2 184C814.3 186 843.7 194 872.8 193C902 192 931 182 945.5 177L960 172L960 152L945.5 153C931 154 902 156 872.8 157.5C843.7 159 814.3 160 785.2 160.5C756 161 727 161 698 159.5C669 158 640 155 611 151C582 147 553 142 523.8 145.5C494.7 149 465.3 161 436.2 164C407 167 378 161 349 165.5C320 170 291 185 262 184.5C233 184 204 168 174.8 167C145.7 166 116.3 180 87.2 185C58 190 29 186 14.5 184L0 182Z" fill="#ffaad3"></path><path d="M0 211L14.5 213C29 215 58 219 87.2 220.5C116.3 222 145.7 221 174.8 223C204 225 233 230 262 227C291 224 320 213 349 213C378 213 407 224 436.2 220C465.3 216 494.7 197 523.8 191.5C553 186 582 194 611 197.5C640 201 669 200 698 198.5C727 197 756 195 785.2 197C814.3 199 843.7 205 872.8 203.5C902 202 931 193 945.5 188.5L960 184L960 170L945.5 175C931 180 902 190 872.8 191C843.7 192 814.3 184 785.2 182C756 180 727 184 698 185.5C669 187 640 186 611 182C582 178 553 171 523.8 177C494.7 183 465.3 202 436.2 205.5C407 209 378 197 349 196.5C320 196 291 207 262 209C233 211 204 204 174.8 202.5C145.7 201 116.3 205 87.2 206C58 207 29 205 14.5 204L0 203Z" fill="#ffb9da"></path><path d="M0 238L14.5 240C29 242 58 246 87.2 245C116.3 244 145.7 238 174.8 237C204 236 233 240 262 239C291 238 320 232 349 232.5C378 233 407 240 436.2 235.5C465.3 231 494.7 215 523.8 211C553 207 582 215 611 218C640 221 669 219 698 218.5C727 218 756 219 785.2 222.5C814.3 226 843.7 232 872.8 231C902 230 931 222 945.5 218L960 214L960 182L945.5 186.5C931 191 902 200 872.8 201.5C843.7 203 814.3 197 785.2 195C756 193 727 195 698 196.5C669 198 640 199 611 195.5C582 192 553 184 523.8 189.5C494.7 195 465.3 214 436.2 218C407 222 378 211 349 211C320 211 291 222 262 225C233 228 204 223 174.8 221C145.7 219 116.3 220 87.2 218.5C58 217 29 213 14.5 211L0 209Z" fill="#ffd0e7"></path><path d="M0 247L14.5 249C29 251 58 255 87.2 256C116.3 257 145.7 255 174.8 254.5C204 254 233 255 262 253.5C291 252 320 248 349 250C378 252 407 260 436.2 256.5C465.3 253 494.7 238 523.8 233.5C553 229 582 235 611 236.5C640 238 669 235 698 234C727 233 756 234 785.2 237C814.3 240 843.7 245 872.8 244.5C902 244 931 238 945.5 235L960 232L960 212L945.5 216C931 220 902 228 872.8 229C843.7 230 814.3 224 785.2 220.5C756 217 727 216 698 216.5C669 217 640 219 611 216C582 213 553 205 523.8 209C494.7 213 465.3 229 436.2 233.5C407 238 378 231 349 230.5C320 230 291 236 262 237C233 238 204 234 174.8 235C145.7 236 116.3 242 87.2 243C58 244 29 240 14.5 238L0 236Z" fill="#ffe8f3"></path><path d="M0 301L14.5 301C29 301 58 301 87.2 301C116.3 301 145.7 301 174.8 301C204 301 233 301 262 301C291 301 320 301 349 301C378 301 407 301 436.2 301C465.3 301 494.7 301 523.8 301C553 301 582 301 611 301C640 301 669 301 698 301C727 301 756 301 785.2 301C814.3 301 843.7 301 872.8 301C902 301 931 301 945.5 301L960 301L960 230L945.5 233C931 236 902 242 872.8 242.5C843.7 243 814.3 238 785.2 235C756 232 727 231 698 232C669 233 640 236 611 234.5C582 233 553 227 523.8 231.5C494.7 236 465.3 251 436.2 254.5C407 258 378 250 349 248C320 246 291 250 262 251.5C233 253 204 252 174.8 252.5C145.7 253 116.3 255 87.2 254C58 253 29 249 14.5 247L0 245Z" fill="#ffffff"></path></svg>