<svg id="visual" viewBox="0 0 960 300" width="960" height="300" xmlns="http://www.w3.org/2000/svg" xmlns:xlink="http://www.w3.org/1999/xlink" version="1.1"><path d="M0 19L22.8 27C45.7 35 91.3 51 137 63.5C182.7 76 228.3 85 274 87C319.7 89 365.3 84 411.2 73C457 62 503 45 548.8 44C594.7 43 640.3 58 686 59.5C731.7 61 777.3 49 823 50C868.7 51 914.3 65 937.2 72L960 79L960 0L937.2 0C914.3 0 868.7 0 823 0C777.3 0 731.7 0 686 0C640.3 0 594.7 0 548.8 0C503 0 457 0 411.2 0C365.3 0 319.7 0 274 0C228.3 0 182.7 0 137 0C91.3 0 45.7 0 22.8 0L0 0Z" fill="#ffffff"></path><path d="M0 73L22.8 89.5C45.7 106 91.3 139 137 156C182.7 173 228.3 174 274 173C319.7 172 365.3 169 411.2 151C457 133 503 100 548.8 88.5C594.7 77 640.3 87 686 96.5C731.7 106 777.3 115 823 120.5C868.7 126 914.3 128 937.2 129L960 130L960 77L937.2 70C914.3 63 868.7 49 823 48C777.3 47 731.7 59 686 57.5C640.3 56 594.7 41 548.8 42C503 43 457 60 411.2 71C365.3 82 319.7 87 274 85C228.3 83 182.7 74 137 61.5C91.3 49 45.7 33 22.8 25L0 17Z" fill="#ffedf5"></path><path d="M0 82L22.8 98C45.7 114 91.3 146 137 165C182.7 184 228.3 190 274 191C319.7 192 365.3 188 411.2 171C457 154 503 124 548.8 114C594.7 104 640.3 114 686 125.5C731.7 137 777.3 150 823 156.5C868.7 163 914.3 163 937.2 163L960 163L960 128L937.2 127C914.3 126 868.7 124 823 118.5C777.3 113 731.7 104 686 94.5C640.3 85 594.7 75 548.8 86.5C503 98 457 131 411.2 149C365.3 167 319.7 170 274 171C228.3 172 182.7 171 137 154C91.3 137 45.7 104 22.8 87.5L0 71Z" fill="#ffdbec"></path><path d="M0 139L22.8 155.5C45.7 172 91.3 205 137 217C182.7 229 228.3 220 274 215C319.7 210 365.3 209 411.2 195.5C457 182 503 156 548.8 144.5C594.7 133 640.3 136 686 149.5C731.7 163 777.3 187 823 193C868.7 199 914.3 187 937.2 181L960 175L960 161L937.2 161C914.3 161 868.7 161 823 154.5C777.3 148 731.7 135 686 123.5C640.3 112 594.7 102 548.8 112C503 122 457 152 411.2 169C365.3 186 319.7 190 274 189C228.3 188 182.7 182 137 163C91.3 144 45.7 112 22.8 96L0 80Z" fill="#ffc9e2"></path><path d="M0 151L22.8 169C45.7 187 91.3 223 137 236C182.7 249 228.3 239 274 235C319.7 231 365.3 233 411.2 220C457 207 503 179 548.8 170.5C594.7 162 640.3 173 686 184.5C731.7 196 777.3 208 823 209C868.7 210 914.3 200 937.2 195L960 190L960 173L937.2 179C914.3 185 868.7 197 823 191C777.3 185 731.7 161 686 147.5C640.3 134 594.7 131 548.8 142.5C503 154 457 180 411.2 193.5C365.3 207 319.7 208 274 213C228.3 218 182.7 227 137 215C91.3 203 45.7 170 22.8 153.5L0 137Z" fill="#ffb7d9"></path><path d="M0 271L22.8 273C45.7 275 91.3 279 137 282C182.7 285 228.3 287 274 287C319.7 287 365.3 285 411.2 282C457 279 503 275 548.8 273.5C594.7 272 640.3 273 686 271.5C731.7 270 777.3 266 823 267.5C868.7 269 914.3 276 937.2 279.5L960 283L960 188L937.2 193C914.3 198 868.7 208 823 207C777.3 206 731.7 194 686 182.5C640.3 171 594.7 160 548.8 168.5C503 177 457 205 411.2 218C365.3 231 319.7 229 274 233C228.3 237 182.7 247 137 234C91.3 221 45.7 185 22.8 167L0 149Z" fill="#ffa4cf"></path><path d="M0 301L22.8 301C45.7 301 91.3 301 137 301C182.7 301 228.3 301 274 301C319.7 301 365.3 301 411.2 301C457 301 503 301 548.8 301C594.7 301 640.3 301 686 301C731.7 301 777.3 301 823 301C868.7 301 914.3 301 937.2 301L960 301L960 281L937.2 277.5C914.3 274 868.7 267 823 265.5C777.3 264 731.7 268 686 269.5C640.3 271 594.7 270 548.8 271.5C503 273 457 277 411.2 280C365.3 283 319.7 285 274 285C228.3 285 182.7 283 137 280C91.3 277 45.7 273 22.8 271L0 269Z" fill="#ff90c5"></path></svg>