<svg id="visual" viewBox="0 0 960 300" width="960" height="300" xmlns="http://www.w3.org/2000/svg" xmlns:xlink="http://www.w3.org/1999/xlink" version="1.1"><rect x="0" y="0" width="960" height="300" fill="#ffceff"></rect><path d="M0 14L5.2 17.2C10.3 20.3 20.7 26.7 31 39.3C41.3 52 51.7 71 62 72C72.3 73 82.7 56 93 45.3C103.3 34.7 113.7 30.3 124 31.8C134.3 33.3 144.7 40.7 155 45.5C165.3 50.3 175.7 52.7 186 44.8C196.3 37 206.7 19 217 20.7C227.3 22.3 237.7 43.7 248 58.2C258.3 72.7 268.7 80.3 279 81.3C289.3 82.3 299.7 76.7 310 64.3C320.3 52 330.7 33 341 39.2C351.3 45.3 361.7 76.7 372 93.5C382.3 110.3 392.7 112.7 403 104.5C413.3 96.3 423.7 77.7 434 63.8C444.3 50 454.7 41 464.8 49.5C475 58 485 84 495.2 85.3C505.3 86.7 515.7 63.3 526 63.5C536.3 63.7 546.7 87.3 557 92.5C567.3 97.7 577.7 84.3 588 70C598.3 55.7 608.7 40.3 619 31.8C629.3 23.3 639.7 21.7 650 20C660.3 18.3 670.7 16.7 681 24.7C691.3 32.7 701.7 50.3 712 62.3C722.3 74.3 732.7 80.7 743 81.5C753.3 82.3 763.7 77.7 774 68C784.3 58.3 794.7 43.7 805 33.3C815.3 23 825.7 17 836 23.3C846.3 29.7 856.7 48.3 867 52.8C877.3 57.3 887.7 47.7 898 38.8C908.3 30 918.7 22 929 23.3C939.3 24.7 949.7 35.3 954.8 40.7L960 46L960 0L954.8 0C949.7 0 939.3 0 929 0C918.7 0 908.3 0 898 0C887.7 0 877.3 0 867 0C856.7 0 846.3 0 836 0C825.7 0 815.3 0 805 0C794.7 0 784.3 0 774 0C763.7 0 753.3 0 743 0C732.7 0 722.3 0 712 0C701.7 0 691.3 0 681 0C670.7 0 660.3 0 650 0C639.7 0 629.3 0 619 0C608.7 0 598.3 0 588 0C577.7 0 567.3 0 557 0C546.7 0 536.3 0 526 0C515.7 0 505.3 0 495.2 0C485 0 475 0 464.8 0C454.7 0 444.3 0 434 0C423.7 0 413.3 0 403 0C392.7 0 382.3 0 372 0C361.7 0 351.3 0 341 0C330.7 0 320.3 0 310 0C299.7 0 289.3 0 279 0C268.7 0 258.3 0 248 0C237.7 0 227.3 0 217 0C206.7 0 196.3 0 186 0C175.7 0 165.3 0 155 0C144.7 0 134.3 0 124 0C113.7 0 103.3 0 93 0C82.7 0 72.3 0 62 0C51.7 0 41.3 0 31 0C20.7 0 10.3 0 5.2 0L0 0Z" fill="#FF90C5" stroke-linecap="round" stroke-linejoin="miter"></path></svg>