<svg id="visual" viewBox="0 0 360 780" width="360" height="780" xmlns="http://www.w3.org/2000/svg" xmlns:xlink="http://www.w3.org/1999/xlink" version="1.1"><rect x="0" y="0" width="360" height="780" fill="#ffffff"></rect><defs><linearGradient id="grad1_0" x1="0%" y1="0%" x2="100%" y2="100%"><stop offset="30%" stop-color="#ff90c5" stop-opacity="1"></stop><stop offset="70%" stop-color="#ff90c5" stop-opacity="1"></stop></linearGradient></defs><defs><linearGradient id="grad1_1" x1="0%" y1="0%" x2="100%" y2="100%"><stop offset="30%" stop-color="#ff90c5" stop-opacity="1"></stop><stop offset="70%" stop-color="#ffb6d8" stop-opacity="1"></stop></linearGradient></defs><defs><linearGradient id="grad1_2" x1="0%" y1="0%" x2="100%" y2="100%"><stop offset="30%" stop-color="#ffdbeb" stop-opacity="1"></stop><stop offset="70%" stop-color="#ffb6d8" stop-opacity="1"></stop></linearGradient></defs><defs><linearGradient id="grad1_3" x1="0%" y1="0%" x2="100%" y2="100%"><stop offset="30%" stop-color="#ffdbeb" stop-opacity="1"></stop><stop offset="70%" stop-color="#ffffff" stop-opacity="1"></stop></linearGradient></defs><defs><linearGradient id="grad2_0" x1="0%" y1="0%" x2="100%" y2="100%"><stop offset="30%" stop-color="#ff90c5" stop-opacity="1"></stop><stop offset="70%" stop-color="#ff90c5" stop-opacity="1"></stop></linearGradient></defs><defs><linearGradient id="grad2_1" x1="0%" y1="0%" x2="100%" y2="100%"><stop offset="30%" stop-color="#ffb6d8" stop-opacity="1"></stop><stop offset="70%" stop-color="#ff90c5" stop-opacity="1"></stop></linearGradient></defs><defs><linearGradient id="grad2_2" x1="0%" y1="0%" x2="100%" y2="100%"><stop offset="30%" stop-color="#ffb6d8" stop-opacity="1"></stop><stop offset="70%" stop-color="#ffdbeb" stop-opacity="1"></stop></linearGradient></defs><defs><linearGradient id="grad2_3" x1="0%" y1="0%" x2="100%" y2="100%"><stop offset="30%" stop-color="#ffffff" stop-opacity="1"></stop><stop offset="70%" stop-color="#ffdbeb" stop-opacity="1"></stop></linearGradient></defs><g transform="translate(360, 0)"><path d="M0 324C-58.7 316.7 -117.5 309.4 -162 280.6C-206.5 251.8 -236.9 201.4 -261.5 151C-286.2 100.6 -305.1 50.3 -324 0L0 0Z" fill="#ffedf5"></path><path d="M0 243C-44 237.5 -88.1 232.1 -121.5 210.4C-154.9 188.8 -177.7 151 -196.2 113.3C-214.6 75.5 -228.8 37.7 -243 0L0 0Z" fill="#ffc9e2"></path><path d="M0 162C-29.4 158.4 -58.7 154.7 -81 140.3C-103.3 125.9 -118.5 100.7 -130.8 75.5C-143.1 50.3 -152.5 25.2 -162 0L0 0Z" fill="#ffa4ce"></path><path d="M0 81C-14.7 79.2 -29.4 77.4 -40.5 70.1C-51.6 62.9 -59.2 50.3 -65.4 37.8C-71.5 25.2 -76.3 12.6 -81 0L0 0Z" fill="#ff90c5"></path></g><g transform="translate(0, 780)"><path d="M0 -324C58.6 -316.6 117.2 -309.3 162 -280.6C206.8 -251.9 237.7 -201.8 262.4 -151.5C287.1 -101.2 305.5 -50.6 324 0L0 0Z" fill="#ffedf5"></path><path d="M0 -243C44 -237.5 87.9 -232 121.5 -210.4C155.1 -188.9 178.3 -151.4 196.8 -113.6C215.3 -75.9 229.2 -37.9 243 0L0 0Z" fill="#ffc9e2"></path><path d="M0 -162C29.3 -158.3 58.6 -154.6 81 -140.3C103.4 -125.9 118.9 -100.9 131.2 -75.8C143.5 -50.6 152.8 -25.3 162 0L0 0Z" fill="#ffa4ce"></path><path d="M0 -81C14.7 -79.2 29.3 -77.3 40.5 -70.1C51.7 -63 59.4 -50.5 65.6 -37.9C71.8 -25.3 76.4 -12.6 81 0L0 0Z" fill="#ff90c5"></path></g></svg>