<svg id="visual" viewBox="0 0 960 540" width="960" height="540" xmlns="http://www.w3.org/2000/svg" xmlns:xlink="http://www.w3.org/1999/xlink" version="1.1"><path d="M0 87L10 90.7C20 94.3 40 101.7 60 116.2C80 130.7 100 152.3 120 155C140 157.7 160 141.3 180 123.3C200 105.3 220 85.7 240 90.2C260 94.7 280 123.3 300 129.7C320 136 340 120 360 109.2C380 98.3 400 92.7 420 92.7C440 92.7 460 98.3 480 98.3C500 98.3 520 92.7 540 95.3C560 98 580 109 600 110.8C620 112.7 640 105.3 660 107.2C680 109 700 120 720 118.2C740 116.3 760 101.7 780 100.7C800 99.7 820 112.3 840 117.8C860 123.3 880 121.7 900 119C920 116.3 940 112.7 950 110.8L960 109L960 0L950 0C940 0 920 0 900 0C880 0 860 0 840 0C820 0 800 0 780 0C760 0 740 0 720 0C700 0 680 0 660 0C640 0 620 0 600 0C580 0 560 0 540 0C520 0 500 0 480 0C460 0 440 0 420 0C400 0 380 0 360 0C340 0 320 0 300 0C280 0 260 0 240 0C220 0 200 0 180 0C160 0 140 0 120 0C100 0 80 0 60 0C40 0 20 0 10 0L0 0Z" fill="#ffffff"></path><path d="M0 114L10 115C20 116 40 118 60 130.7C80 143.3 100 166.7 120 169.3C140 172 160 154 180 136.8C200 119.7 220 103.3 240 107.8C260 112.3 280 137.7 300 145C320 152.3 340 141.7 360 132.7C380 123.7 400 116.3 420 113.5C440 110.7 460 112.3 480 111.5C500 110.7 520 107.3 540 111.8C560 116.3 580 128.7 600 131.3C620 134 640 127 660 127C680 127 700 134 720 132.2C740 130.3 760 119.7 780 121.5C800 123.3 820 137.7 840 144C860 150.3 880 148.7 900 146C920 143.3 940 139.7 950 137.8L960 136L960 107L950 108.8C940 110.7 920 114.3 900 117C880 119.7 860 121.3 840 115.8C820 110.3 800 97.7 780 98.7C760 99.7 740 114.3 720 116.2C700 118 680 107 660 105.2C640 103.3 620 110.7 600 108.8C580 107 560 96 540 93.3C520 90.7 500 96.3 480 96.3C460 96.3 440 90.7 420 90.7C400 90.7 380 96.3 360 107.2C340 118 320 134 300 127.7C280 121.3 260 92.7 240 88.2C220 83.7 200 103.3 180 121.3C160 139.3 140 155.7 120 153C100 150.3 80 128.7 60 114.2C40 99.7 20 92.3 10 88.7L0 85Z" fill="#ffe7f2"></path><path d="M0 141L10 141C20 141 40 141 60 154.5C80 168 100 195 120 197.8C140 200.7 160 179.3 180 161.3C200 143.3 220 128.7 240 131.3C260 134 280 154 300 160.3C320 166.7 340 159.3 360 151.2C380 143 400 134 420 129.5C440 125 460 125 480 123.2C500 121.3 520 117.7 540 125.8C560 134 580 154 600 158.5C620 163 640 152 660 149.3C680 146.7 700 152.3 720 151.5C740 150.7 760 143.3 780 146C800 148.7 820 161.3 840 165.8C860 170.3 880 166.7 900 165.7C920 164.7 940 166.3 950 167.2L960 168L960 134L950 135.8C940 137.7 920 141.3 900 144C880 146.7 860 148.3 840 142C820 135.7 800 121.3 780 119.5C760 117.7 740 128.3 720 130.2C700 132 680 125 660 125C640 125 620 132 600 129.3C580 126.7 560 114.3 540 109.8C520 105.3 500 108.7 480 109.5C460 110.3 440 108.7 420 111.5C400 114.3 380 121.7 360 130.7C340 139.7 320 150.3 300 143C280 135.7 260 110.3 240 105.8C220 101.3 200 117.7 180 134.8C160 152 140 170 120 167.3C100 164.7 80 141.3 60 128.7C40 116 20 114 10 113L0 112Z" fill="#ffcee5"></path><path d="M0 174L10 174.8C20 175.7 40 177.3 60 189.8C80 202.3 100 225.7 120 227.5C140 229.3 160 209.7 180 191.7C200 173.7 220 157.3 240 161C260 164.7 280 188.3 300 196.5C320 204.7 340 197.3 360 191C380 184.7 400 179.3 420 177.5C440 175.7 460 177.3 480 177.3C500 177.3 520 175.7 540 184.7C560 193.7 580 213.3 600 216.8C620 220.3 640 207.7 660 204.2C680 200.7 700 206.3 720 200.2C740 194 760 176 780 175C800 174 820 190 840 200.7C860 211.3 880 216.7 900 214C920 211.3 940 200.7 950 195.3L960 190L960 166L950 165.2C940 164.3 920 162.7 900 163.7C880 164.7 860 168.3 840 163.8C820 159.3 800 146.7 780 144C760 141.3 740 148.7 720 149.5C700 150.3 680 144.7 660 147.3C640 150 620 161 600 156.5C580 152 560 132 540 123.8C520 115.7 500 119.3 480 121.2C460 123 440 123 420 127.5C400 132 380 141 360 149.2C340 157.3 320 164.7 300 158.3C280 152 260 132 240 129.3C220 126.7 200 141.3 180 159.3C160 177.3 140 198.7 120 195.8C100 193 80 166 60 152.5C40 139 20 139 10 139L0 139Z" fill="#ffb5d8"></path><path d="M0 222L10 220.3C20 218.7 40 215.3 60 227.2C80 239 100 266 120 267.7C140 269.3 160 245.7 180 224C200 202.3 220 182.7 240 186.3C260 190 280 217 300 227.8C320 238.7 340 233.3 360 224.3C380 215.3 400 202.7 420 200C440 197.3 460 204.7 480 206.5C500 208.3 520 204.7 540 210.8C560 217 580 233 600 234.8C620 236.7 640 224.3 660 222.7C680 221 700 230 720 228.2C740 226.3 760 213.7 780 210.8C800 208 820 215 840 222.2C860 229.3 880 236.7 900 235C920 233.3 940 222.7 950 217.3L960 212L960 188L950 193.3C940 198.7 920 209.3 900 212C880 214.7 860 209.3 840 198.7C820 188 800 172 780 173C760 174 740 192 720 198.2C700 204.3 680 198.7 660 202.2C640 205.7 620 218.3 600 214.8C580 211.3 560 191.7 540 182.7C520 173.7 500 175.3 480 175.3C460 175.3 440 173.7 420 175.5C400 177.3 380 182.7 360 189C340 195.3 320 202.7 300 194.5C280 186.3 260 162.7 240 159C220 155.3 200 171.7 180 189.7C160 207.7 140 227.3 120 225.5C100 223.7 80 200.3 60 187.8C40 175.3 20 173.7 10 172.8L0 172Z" fill="#ff9bca"></path><path d="M0 255L10 251.3C20 247.7 40 240.3 60 251.2C80 262 100 291 120 293.7C140 296.3 160 272.7 180 249.2C200 225.7 220 202.3 240 204.2C260 206 280 233 300 246.5C320 260 340 260 360 256.5C380 253 400 246 420 245.2C440 244.3 460 249.7 480 250.5C500 251.3 520 247.7 540 249.5C560 251.3 580 258.7 600 256.8C620 255 640 244 660 243C680 242 700 251 720 252C740 253 760 246 780 243.3C800 240.7 820 242.3 840 250.3C860 258.3 880 272.7 900 275.3C920 278 940 269 950 264.5L960 260L960 210L950 215.3C940 220.7 920 231.3 900 233C880 234.7 860 227.3 840 220.2C820 213 800 206 780 208.8C760 211.7 740 224.3 720 226.2C700 228 680 219 660 220.7C640 222.3 620 234.7 600 232.8C580 231 560 215 540 208.8C520 202.7 500 206.3 480 204.5C460 202.7 440 195.3 420 198C400 200.7 380 213.3 360 222.3C340 231.3 320 236.7 300 225.8C280 215 260 188 240 184.3C220 180.7 200 200.3 180 222C160 243.7 140 267.3 120 265.7C100 264 80 237 60 225.2C40 213.3 20 216.7 10 218.3L0 220Z" fill="#ff90c5"></path><path d="M0 357L10 357C20 357 40 357 60 360.7C80 364.3 100 371.7 120 378C140 384.3 160 389.7 180 377C200 364.3 220 333.7 240 320.2C260 306.7 280 310.3 300 319.3C320 328.3 340 342.7 360 355.3C380 368 400 379 420 374.5C440 370 460 350 480 348.2C500 346.3 520 362.7 540 362.7C560 362.7 580 346.3 600 337.3C620 328.3 640 326.7 660 325.8C680 325 700 325 720 330.3C740 335.7 760 346.3 780 350C800 353.7 820 350.3 840 354.8C860 359.3 880 371.7 900 376.2C920 380.7 940 377.3 950 375.7L960 374L960 258L950 262.5C940 267 920 276 900 273.3C880 270.7 860 256.3 840 248.3C820 240.3 800 238.7 780 241.3C760 244 740 251 720 250C700 249 680 240 660 241C640 242 620 253 600 254.8C580 256.7 560 249.3 540 247.5C520 245.7 500 249.3 480 248.5C460 247.7 440 242.3 420 243.2C400 244 380 251 360 254.5C340 258 320 258 300 244.5C280 231 260 204 240 202.2C220 200.3 200 223.7 180 247.2C160 270.7 140 294.3 120 291.7C100 289 80 260 60 249.2C40 238.3 20 245.7 10 249.3L0 253Z" fill="#ff90c5"></path><path d="M0 379L10 380.8C20 382.7 40 386.3 60 390C80 393.7 100 397.3 120 400.8C140 404.3 160 407.7 180 395C200 382.3 220 353.7 240 339.3C260 325 280 325 300 335.8C320 346.7 340 368.3 360 381C380 393.7 400 397.3 420 391.8C440 386.3 460 371.7 480 372.5C500 373.3 520 389.7 540 389.7C560 389.7 580 373.3 600 361.7C620 350 640 343 660 341.3C680 339.7 700 343.3 720 348.7C740 354 760 361 780 362.7C800 364.3 820 360.7 840 366.2C860 371.7 880 386.3 900 391.8C920 397.3 940 393.7 950 391.8L960 390L960 372L950 373.7C940 375.3 920 378.7 900 374.2C880 369.7 860 357.3 840 352.8C820 348.3 800 351.7 780 348C760 344.3 740 333.7 720 328.3C700 323 680 323 660 323.8C640 324.7 620 326.3 600 335.3C580 344.3 560 360.7 540 360.7C520 360.7 500 344.3 480 346.2C460 348 440 368 420 372.5C400 377 380 366 360 353.3C340 340.7 320 326.3 300 317.3C280 308.3 260 304.7 240 318.2C220 331.7 200 362.3 180 375C160 387.7 140 382.3 120 376C100 369.7 80 362.3 60 358.7C40 355 20 355 10 355L0 355Z" fill="#ff9bca"></path><path d="M0 401L10 402.7C20 404.3 40 407.7 60 413C80 418.3 100 425.7 120 430.2C140 434.7 160 436.3 180 420.2C200 404 220 370 240 354.8C260 339.7 280 343.3 300 356.8C320 370.3 340 393.7 360 408.8C380 424 400 431 420 428.3C440 425.7 460 413.3 480 410.7C500 408 520 415 540 413.2C560 411.3 580 400.7 600 389C620 377.3 640 364.7 660 362C680 359.3 700 366.7 720 374.8C740 383 760 392 780 392C800 392 820 383 840 389.2C860 395.3 880 416.7 900 422.8C920 429 940 420 950 415.5L960 411L960 388L950 389.8C940 391.7 920 395.3 900 389.8C880 384.3 860 369.7 840 364.2C820 358.7 800 362.3 780 360.7C760 359 740 352 720 346.7C700 341.3 680 337.7 660 339.3C640 341 620 348 600 359.7C580 371.3 560 387.7 540 387.7C520 387.7 500 371.3 480 370.5C460 369.7 440 384.3 420 389.8C400 395.3 380 391.7 360 379C340 366.3 320 344.7 300 333.8C280 323 260 323 240 337.3C220 351.7 200 380.3 180 393C160 405.7 140 402.3 120 398.8C100 395.3 80 391.7 60 388C40 384.3 20 380.7 10 378.8L0 377Z" fill="#ffb5d8"></path><path d="M0 422L10 425.7C20 429.3 40 436.7 60 440.3C80 444 100 444 120 445.8C140 447.7 160 451.3 180 438.7C200 426 220 397 240 381.7C260 366.3 280 364.7 300 374.7C320 384.7 340 406.3 360 421.7C380 437 400 446 420 445C440 444 460 433 480 432C500 431 520 440 540 437.3C560 434.7 580 420.3 600 408.7C620 397 640 388 660 387.2C680 386.3 700 393.7 720 401.8C740 410 760 419 780 419C800 419 820 410 840 415.3C860 420.7 880 440.3 900 443.8C920 447.3 940 434.7 950 428.3L960 422L960 409L950 413.5C940 418 920 427 900 420.8C880 414.7 860 393.3 840 387.2C820 381 800 390 780 390C760 390 740 381 720 372.8C700 364.7 680 357.3 660 360C640 362.7 620 375.3 600 387C580 398.7 560 409.3 540 411.2C520 413 500 406 480 408.7C460 411.3 440 423.7 420 426.3C400 429 380 422 360 406.8C340 391.7 320 368.3 300 354.8C280 341.3 260 337.7 240 352.8C220 368 200 402 180 418.2C160 434.3 140 432.7 120 428.2C100 423.7 80 416.3 60 411C40 405.7 20 402.3 10 400.7L0 399Z" fill="#ffcee5"></path><path d="M0 476L10 479.7C20 483.3 40 490.7 60 491.7C80 492.7 100 487.3 120 490C140 492.7 160 503.3 180 501.5C200 499.7 220 485.3 240 477.2C260 469 280 467 300 468.8C320 470.7 340 476.3 360 481.8C380 487.3 400 492.7 420 495.3C440 498 460 498 480 494.3C500 490.7 520 483.3 540 484.2C560 485 580 494 600 494C620 494 640 485 660 482.3C680 479.7 700 483.3 720 483.3C740 483.3 760 479.7 780 476C800 472.3 820 468.7 840 473.2C860 477.7 880 490.3 900 495.8C920 501.3 940 499.7 950 498.8L960 498L960 420L950 426.3C940 432.7 920 445.3 900 441.8C880 438.3 860 418.7 840 413.3C820 408 800 417 780 417C760 417 740 408 720 399.8C700 391.7 680 384.3 660 385.2C640 386 620 395 600 406.7C580 418.3 560 432.7 540 435.3C520 438 500 429 480 430C460 431 440 442 420 443C400 444 380 435 360 419.7C340 404.3 320 382.7 300 372.7C280 362.7 260 364.3 240 379.7C220 395 200 424 180 436.7C160 449.3 140 445.7 120 443.8C100 442 80 442 60 438.3C40 434.7 20 427.3 10 423.7L0 420Z" fill="#ffe7f2"></path><path d="M0 541L10 541C20 541 40 541 60 541C80 541 100 541 120 541C140 541 160 541 180 541C200 541 220 541 240 541C260 541 280 541 300 541C320 541 340 541 360 541C380 541 400 541 420 541C440 541 460 541 480 541C500 541 520 541 540 541C560 541 580 541 600 541C620 541 640 541 660 541C680 541 700 541 720 541C740 541 760 541 780 541C800 541 820 541 840 541C860 541 880 541 900 541C920 541 940 541 950 541L960 541L960 496L950 496.8C940 497.7 920 499.3 900 493.8C880 488.3 860 475.7 840 471.2C820 466.7 800 470.3 780 474C760 477.7 740 481.3 720 481.3C700 481.3 680 477.7 660 480.3C640 483 620 492 600 492C580 492 560 483 540 482.2C520 481.3 500 488.7 480 492.3C460 496 440 496 420 493.3C400 490.7 380 485.3 360 479.8C340 474.3 320 468.7 300 466.8C280 465 260 467 240 475.2C220 483.3 200 497.7 180 499.5C160 501.3 140 490.7 120 488C100 485.3 80 490.7 60 489.7C40 488.7 20 481.3 10 477.7L0 474Z" fill="#ffffff"></path></svg>