<svg id="visual" viewBox="0 0 960 300" width="960" height="300" xmlns="http://www.w3.org/2000/svg" xmlns:xlink="http://www.w3.org/1999/xlink" version="1.1"><path d="M0 28L22.8 31C45.7 34 91.3 40 137 38C182.7 36 228.3 26 274 27C319.7 28 365.3 40 411.2 42.5C457 45 503 38 548.8 36C594.7 34 640.3 37 686 38C731.7 39 777.3 38 823 39.5C868.7 41 914.3 45 937.2 47L960 49L960 0L937.2 0C914.3 0 868.7 0 823 0C777.3 0 731.7 0 686 0C640.3 0 594.7 0 548.8 0C503 0 457 0 411.2 0C365.3 0 319.7 0 274 0C228.3 0 182.7 0 137 0C91.3 0 45.7 0 22.8 0L0 0Z" fill="#ffffff"></path><path d="M0 79L22.8 85.5C45.7 92 91.3 105 137 118C182.7 131 228.3 144 274 140.5C319.7 137 365.3 117 411.2 99C457 81 503 65 548.8 63C594.7 61 640.3 73 686 75.5C731.7 78 777.3 71 823 68C868.7 65 914.3 66 937.2 66.5L960 67L960 47L937.2 45C914.3 43 868.7 39 823 37.5C777.3 36 731.7 37 686 36C640.3 35 594.7 32 548.8 34C503 36 457 43 411.2 40.5C365.3 38 319.7 26 274 25C228.3 24 182.7 34 137 36C91.3 38 45.7 32 22.8 29L0 26Z" fill="#ffeeee"></path><path d="M0 133L22.8 133.5C45.7 134 91.3 135 137 142.5C182.7 150 228.3 164 274 167.5C319.7 171 365.3 164 411.2 154C457 144 503 131 548.8 124C594.7 117 640.3 116 686 110.5C731.7 105 777.3 95 823 92C868.7 89 914.3 93 937.2 95L960 97L960 65L937.2 64.5C914.3 64 868.7 63 823 66C777.3 69 731.7 76 686 73.5C640.3 71 594.7 59 548.8 61C503 63 457 79 411.2 97C365.3 115 319.7 135 274 138.5C228.3 142 182.7 129 137 116C91.3 103 45.7 90 22.8 83.5L0 77Z" fill="#ffdedd"></path><path d="M0 202L22.8 204.5C45.7 207 91.3 212 137 215C182.7 218 228.3 219 274 221C319.7 223 365.3 226 411.2 228C457 230 503 231 548.8 227C594.7 223 640.3 214 686 209C731.7 204 777.3 203 823 205C868.7 207 914.3 212 937.2 214.5L960 217L960 95L937.2 93C914.3 91 868.7 87 823 90C777.3 93 731.7 103 686 108.5C640.3 114 594.7 115 548.8 122C503 129 457 142 411.2 152C365.3 162 319.7 169 274 165.5C228.3 162 182.7 148 137 140.5C91.3 133 45.7 132 22.8 131.5L0 131Z" fill="#ffcdcc"></path><path d="M0 214L22.8 218C45.7 222 91.3 230 137 237C182.7 244 228.3 250 274 254C319.7 258 365.3 260 411.2 257.5C457 255 503 248 548.8 243.5C594.7 239 640.3 237 686 234.5C731.7 232 777.3 229 823 229.5C868.7 230 914.3 234 937.2 236L960 238L960 215L937.2 212.5C914.3 210 868.7 205 823 203C777.3 201 731.7 202 686 207C640.3 212 594.7 221 548.8 225C503 229 457 228 411.2 226C365.3 224 319.7 221 274 219C228.3 217 182.7 216 137 213C91.3 210 45.7 205 22.8 202.5L0 200Z" fill="#ffbdbc"></path><path d="M0 259L22.8 261C45.7 263 91.3 267 137 273C182.7 279 228.3 287 274 291C319.7 295 365.3 295 411.2 293C457 291 503 287 548.8 286.5C594.7 286 640.3 289 686 288C731.7 287 777.3 282 823 277.5C868.7 273 914.3 269 937.2 267L960 265L960 236L937.2 234C914.3 232 868.7 228 823 227.5C777.3 227 731.7 230 686 232.5C640.3 235 594.7 237 548.8 241.5C503 246 457 253 411.2 255.5C365.3 258 319.7 256 274 252C228.3 248 182.7 242 137 235C91.3 228 45.7 220 22.8 216L0 212Z" fill="#ffacab"></path><path d="M0 301L22.8 301C45.7 301 91.3 301 137 301C182.7 301 228.3 301 274 301C319.7 301 365.3 301 411.2 301C457 301 503 301 548.8 301C594.7 301 640.3 301 686 301C731.7 301 777.3 301 823 301C868.7 301 914.3 301 937.2 301L960 301L960 263L937.2 265C914.3 267 868.7 271 823 275.5C777.3 280 731.7 285 686 286C640.3 287 594.7 284 548.8 284.5C503 285 457 289 411.2 291C365.3 293 319.7 293 274 289C228.3 285 182.7 277 137 271C91.3 265 45.7 261 22.8 259L0 257Z" fill="#ff9b9b"></path></svg>