<svg id="visual" viewBox="0 0 900 300" width="900" height="300" xmlns="http://www.w3.org/2000/svg" xmlns:xlink="http://www.w3.org/1999/xlink" version="1.1"><rect x="0" y="0" width="900" height="300" fill="#ffffff"></rect><defs><linearGradient id="grad1_0" x1="66.7%" y1="0%" x2="100%" y2="100%"><stop offset="-10%" stop-color="#ff90c5" stop-opacity="1"></stop><stop offset="110%" stop-color="#ff90c5" stop-opacity="1"></stop></linearGradient></defs><defs><linearGradient id="grad1_1" x1="66.7%" y1="0%" x2="100%" y2="100%"><stop offset="-10%" stop-color="#ff90c5" stop-opacity="1"></stop><stop offset="110%" stop-color="#ffb6d8" stop-opacity="1"></stop></linearGradient></defs><defs><linearGradient id="grad1_2" x1="66.7%" y1="0%" x2="100%" y2="100%"><stop offset="-10%" stop-color="#ffdbeb" stop-opacity="1"></stop><stop offset="110%" stop-color="#ffb6d8" stop-opacity="1"></stop></linearGradient></defs><defs><linearGradient id="grad1_3" x1="66.7%" y1="0%" x2="100%" y2="100%"><stop offset="-10%" stop-color="#ffdbeb" stop-opacity="1"></stop><stop offset="110%" stop-color="#ffffff" stop-opacity="1"></stop></linearGradient></defs><defs><linearGradient id="grad2_0" x1="0%" y1="0%" x2="33.3%" y2="100%"><stop offset="-10%" stop-color="#ff90c5" stop-opacity="1"></stop><stop offset="110%" stop-color="#ff90c5" stop-opacity="1"></stop></linearGradient></defs><defs><linearGradient id="grad2_1" x1="0%" y1="0%" x2="33.3%" y2="100%"><stop offset="-10%" stop-color="#ffb6d8" stop-opacity="1"></stop><stop offset="110%" stop-color="#ff90c5" stop-opacity="1"></stop></linearGradient></defs><defs><linearGradient id="grad2_2" x1="0%" y1="0%" x2="33.3%" y2="100%"><stop offset="-10%" stop-color="#ffb6d8" stop-opacity="1"></stop><stop offset="110%" stop-color="#ffdbeb" stop-opacity="1"></stop></linearGradient></defs><defs><linearGradient id="grad2_3" x1="0%" y1="0%" x2="33.3%" y2="100%"><stop offset="-10%" stop-color="#ffffff" stop-opacity="1"></stop><stop offset="110%" stop-color="#ffdbeb" stop-opacity="1"></stop></linearGradient></defs><g transform="translate(900, 0)"><path d="M0 300C-55.6 294 -111.2 287.9 -150 259.8C-188.8 231.7 -210.8 181.5 -233 134.5C-255.2 87.5 -277.6 43.8 -300 0L0 0Z" fill="#ffedf5"></path><path d="M0 225C-41.7 220.5 -83.4 215.9 -112.5 194.9C-141.6 173.8 -158.1 136.1 -174.7 100.9C-191.4 65.6 -208.2 32.8 -225 0L0 0Z" fill="#ffc9e2"></path><path d="M0 150C-27.8 147 -55.6 144 -75 129.9C-94.4 115.8 -105.4 90.7 -116.5 67.3C-127.6 43.8 -138.8 21.9 -150 0L0 0Z" fill="#ffa4ce"></path><path d="M0 75C-13.9 73.5 -27.8 72 -37.5 65C-47.2 57.9 -52.7 45.4 -58.2 33.6C-63.8 21.9 -69.4 10.9 -75 0L0 0Z" fill="#ff90c5"></path></g><g transform="translate(0, 300)"><path d="M0 -300C37.6 -267 75.3 -233.9 123 -213C170.7 -192.2 228.6 -183.5 259.8 -150C291 -116.5 295.5 -58.3 300 0L0 0Z" fill="#ffedf5"></path><path d="M0 -225C28.2 -200.2 56.4 -175.4 92.2 -159.8C128.1 -144.1 171.5 -137.6 194.9 -112.5C218.2 -87.4 221.6 -43.7 225 0L0 0Z" fill="#ffc9e2"></path><path d="M0 -150C18.8 -133.5 37.6 -117 61.5 -106.5C85.4 -96.1 114.3 -91.7 129.9 -75C145.5 -58.3 147.7 -29.1 150 0L0 0Z" fill="#ffa4ce"></path><path d="M0 -75C9.4 -66.7 18.8 -58.5 30.7 -53.3C42.7 -48 57.2 -45.9 65 -37.5C72.7 -29.1 73.9 -14.6 75 0L0 0Z" fill="#ff90c5"></path></g></svg>