<svg id="visual" viewBox="0 0 900 600" width="900" height="600" xmlns="http://www.w3.org/2000/svg" xmlns:xlink="http://www.w3.org/1999/xlink" version="1.1"><rect x="0" y="0" width="900" height="600" fill="#ffffff"></rect><defs><linearGradient id="grad1_0" x1="33.3%" y1="0%" x2="100%" y2="100%"><stop offset="20%" stop-color="#ff90c5" stop-opacity="1"></stop><stop offset="80%" stop-color="#ff90c5" stop-opacity="1"></stop></linearGradient></defs><defs><linearGradient id="grad1_1" x1="33.3%" y1="0%" x2="100%" y2="100%"><stop offset="20%" stop-color="#ff90c5" stop-opacity="1"></stop><stop offset="80%" stop-color="#ffadd3" stop-opacity="1"></stop></linearGradient></defs><defs><linearGradient id="grad1_2" x1="33.3%" y1="0%" x2="100%" y2="100%"><stop offset="20%" stop-color="#ffc9e2" stop-opacity="1"></stop><stop offset="80%" stop-color="#ffadd3" stop-opacity="1"></stop></linearGradient></defs><defs><linearGradient id="grad1_3" x1="33.3%" y1="0%" x2="100%" y2="100%"><stop offset="20%" stop-color="#ffc9e2" stop-opacity="1"></stop><stop offset="80%" stop-color="#ffe4f0" stop-opacity="1"></stop></linearGradient></defs><defs><linearGradient id="grad1_4" x1="33.3%" y1="0%" x2="100%" y2="100%"><stop offset="20%" stop-color="#ffffff" stop-opacity="1"></stop><stop offset="80%" stop-color="#ffe4f0" stop-opacity="1"></stop></linearGradient></defs><defs><linearGradient id="grad2_0" x1="0%" y1="0%" x2="66.7%" y2="100%"><stop offset="20%" stop-color="#ff90c5" stop-opacity="1"></stop><stop offset="80%" stop-color="#ff90c5" stop-opacity="1"></stop></linearGradient></defs><defs><linearGradient id="grad2_1" x1="0%" y1="0%" x2="66.7%" y2="100%"><stop offset="20%" stop-color="#ffadd3" stop-opacity="1"></stop><stop offset="80%" stop-color="#ff90c5" stop-opacity="1"></stop></linearGradient></defs><defs><linearGradient id="grad2_2" x1="0%" y1="0%" x2="66.7%" y2="100%"><stop offset="20%" stop-color="#ffadd3" stop-opacity="1"></stop><stop offset="80%" stop-color="#ffc9e2" stop-opacity="1"></stop></linearGradient></defs><defs><linearGradient id="grad2_3" x1="0%" y1="0%" x2="66.7%" y2="100%"><stop offset="20%" stop-color="#ffe4f0" stop-opacity="1"></stop><stop offset="80%" stop-color="#ffc9e2" stop-opacity="1"></stop></linearGradient></defs><defs><linearGradient id="grad2_4" x1="0%" y1="0%" x2="66.7%" y2="100%"><stop offset="20%" stop-color="#ffe4f0" stop-opacity="1"></stop><stop offset="80%" stop-color="#ffffff" stop-opacity="1"></stop></linearGradient></defs><g transform="translate(900, 0)"><path d="M0 407C-53.8 414.5 -107.5 422.1 -175.7 424.1C-243.8 426 -326.3 422.4 -382.4 382.4C-438.6 342.4 -468.4 266.1 -474 196.3C-479.5 126.5 -460.7 63.3 -442 0L0 0Z" fill="#fff2f8"></path><path d="M0 325.6C-43 331.6 -86 337.7 -140.5 339.2C-195 340.8 -261 337.9 -305.9 305.9C-350.9 274 -374.7 212.9 -379.2 157.1C-383.6 101.2 -368.6 50.6 -353.6 0L0 0Z" fill="#ffd7e9"></path><path d="M0 244.2C-32.3 248.7 -64.5 253.3 -105.4 254.4C-146.3 255.6 -195.8 253.4 -229.5 229.5C-263.2 205.5 -281 159.7 -284.4 117.8C-287.7 75.9 -276.4 38 -265.2 0L0 0Z" fill="#ffbbda"></path><path d="M0 162.8C-21.5 165.8 -43 168.8 -70.3 169.6C-97.5 170.4 -130.5 169 -153 153C-175.4 137 -187.4 106.4 -189.6 78.5C-191.8 50.6 -184.3 25.3 -176.8 0L0 0Z" fill="#ff9fcc"></path><path d="M0 81.4C-10.8 82.9 -21.5 84.4 -35.1 84.8C-48.8 85.2 -65.3 84.5 -76.5 76.5C-87.7 68.5 -93.7 53.2 -94.8 39.3C-95.9 25.3 -92.1 12.7 -88.4 0L0 0Z" fill="#ff90c5"></path></g><g transform="translate(0, 600)"><path d="M0 -536C79.4 -539.6 158.8 -543.1 207 -499.7C255.1 -456.2 272.1 -365.8 307.6 -307.6C343.1 -249.4 397 -223.5 428.7 -177.6C460.3 -131.7 469.7 -65.8 479 0L0 0Z" fill="#fff2f8"></path><path d="M0 -428.8C63.5 -431.6 127 -434.5 165.6 -399.7C204.1 -365 217.7 -292.6 246.1 -246.1C274.4 -199.5 317.6 -178.8 342.9 -142.1C368.3 -105.3 375.7 -52.7 383.2 0L0 0Z" fill="#ffd7e9"></path><path d="M0 -321.6C47.6 -323.7 95.3 -325.9 124.2 -299.8C153.1 -273.7 163.3 -219.5 184.6 -184.6C205.8 -149.6 238.2 -134.1 257.2 -106.5C276.2 -79 281.8 -39.5 287.4 0L0 0Z" fill="#ffbbda"></path><path d="M0 -214.4C31.8 -215.8 63.5 -217.2 82.8 -199.9C102.1 -182.5 108.8 -146.3 123 -123C137.2 -99.8 158.8 -89.4 171.5 -71C184.1 -52.7 187.9 -26.3 191.6 0L0 0Z" fill="#ff9fcc"></path><path d="M0 -107.2C15.9 -107.9 31.8 -108.6 41.4 -99.9C51 -91.2 54.4 -73.2 61.5 -61.5C68.6 -49.9 79.4 -44.7 85.7 -35.5C92.1 -26.3 93.9 -13.2 95.8 0L0 0Z" fill="#ff90c5"></path></g></svg>